/* XPM */
static char *collectible[] = {
/* columns rows colors chars-per-pixel */
"32 32 15 1 ",
"  c #0F1833",
". c #453625",
"X c #472138",
"o c #8C6A56",
"O c #179131",
"+ c #55B33B",
"@ c #64BD37",
"# c #7AB94A",
"$ c #98CF3F",
"% c #A7D722",
"& c #81BB4D",
"* c #BAA368",
"= c #8EC840",
"- c #42428F",
"; c #748F93",
/* pixels */
"================================",
"=======#======@==============+==",
"===$===#==$====@==@=========%=&=",
"=================@=======@==+&==",
"====@=====================@=====",
"===&@==@X...........**==========",
"===&=+=.X............*==========",
"==@=&+&.X.ooo.ooo.ooo.;======$==",
"=&=+&+%.X.oo.......oo.;;========",
"==&+&O+.X...........o.;;;o======",
"=======.X.o.........o.;;;o@=====",
"=======.X.o..ooo.o..o.;;;X=@==@=",
"=======.X.o...........;;;X===@==",
"=======.X....ooooo..o.;;;X======",
"=======.X.o.........o.;;;X======",
"====+==.X.o..o.ooo..o.;;;X======",
"===&=+=.X.o.........o.;;;X=%O&==",
"====&+=.X.o.........o.;;;X+&====",
"====&O=.X.oo.......oo.;;;X======",
"=======.X.oooooooo.oo.;;;X======",
"=======.X............*;;;X======",
"=======.X...........**;;;X#=====",
"=$=====.X             ;;;X===$==",
"=======X---------------;;X======",
"=======X----------------;X======",
"========X----------------o======",
"======+==XXXXXXXXXXXXXXXoo===+==",
"======O&========@&+=+&&======O&=",
"==$==@=&====================@=&=",
"=====+&=======@=============+&==",
"==========#====@==@====$========",
"=================@===========#=="
};
