/* XPM */
static char *exit[] = {
/* columns rows colors chars-per-pixel */
"32 32 11 1 ",
"  c #0C1317",
". c #70162B",
"X c #EF3E6D",
"o c #179131",
"O c #55B33B",
"+ c #64BD37",
"@ c #7AB94A",
"# c #98CF3F",
"$ c #A7D722",
"% c #81BB4D",
"& c #8EC840",
/* pixels */
"&&&&&&&&&&&&&&&&&&&&&&&&&&&&&&&&",
"&&&&&&&@&&&&&&+&&&&&&&&&&&&&&O&&",
"&&&#&&&@&&#&&&&+&&+&&&&&&&&&$&%&",
"&&&&&&&&&&&&&&&&&+&&&&&&&+&&O%&&",
"&&&&+&&&&&&&&&&&&&&&&&&&&&+&&&&&",
"&&&%+&&+&&&&&&&@&&&&&&&&&&&&&&&&",
"&&&%&O&+&&&&&&&@&&&&&&&&&&&&&&&&",
"&&+&%O%&O&&O&&&&&&&&&&&&&&&&&#&&",
"&%&O%O$%O%+o&%&&&+&&&+o&&&&&&&&&",
"&&%O%oO%O%O..........o&%&&&&&&&&",
"&&&&&&&&......    ......&&+&&&&&",
"&&&&&&XX                XX&+&&+&",
"&&&&...XX              XX...&+&&",
"&&&... X XX          XX X ...&&&",
"&&..   X   XX      XX   X   ..&&",
"&..     X    XX  XX    X     ..&",
"&..     X     XXXX     X     ..&",
"..       X XXX    XXX X       ..",
"..      XXX          XXX      ..",
"..   XXX  X          X  XXX   ..",
".. XX     X          X     XX ..",
".XXXXXXXXXXXXXXXXXXXXXXXXXXXXXX.",
"&..         X      X         ..&",
"&..         X      X         ..&",
"&&..         X    X         ..&&",
"&&&..        X    X        ..&&&",
"&&&&...       X  X       ...&O&&",
"&&&&&&...     X  X     ...&&&o%&",
"&&#&&+&%.....  XX  .....&&&&+&%&",
"&&&&&O%&&&&....XX....&&&&&&&O%&&",
"&&&&&&&&&&@&&&&+&&+&&&&#&&&&&&&&",
"&&&&&&&&&&&&&&&&&+&&&&&&&&&&&@&&"
};
