/* XPM */
static char *floor[] = {
/* columns rows colors chars-per-pixel */
"32 32 9 1 ",
"  c #8EC840",
". c #7AB94A",
"X c #64BD37",
"o c #55B33B",
"O c #98CF3F",
"+ c #A7D722",
"@ c #81BB4D",
"# c #179131",
"$ c white",
/* pixels */
"                                ",
"       .      X              o  ",
"   O   .  O    X  X         + @ ",
"                 X       X  o@  ",
"    X                     X     ",
"   @X  X       .                ",
"   @ o X       .                ",
"  X @o@ o  o                 O  ",
" @ o@o+@o@X# @   X   X#         ",
"  @o@#o@o@o@@   @ o +# @        ",
"                X@o o@@   X     ",
"                           X  X ",
"                             X  ",
"                                ",
"           O       o @          ",
"    o          o @o @           ",
"   @ o        +# @# @  X   +#@  ",
"    @o    X   o @o @    o o@    ",
"    @#     X X @o  o @  o@      ",
"           X@X@+o@+# @          ",
"           o@o@o#@o @           ",
"                         ..     ",
" O       X                   O  ",
"          X  X                  ",
"            X                   ",
"                 X   X#         ",
"      o         @ o +# @     o  ",
"      #@        X@o o@@      #@ ",
"  O  X @                    X @ ",
"     o@       X             o@  ",
"          .    X  X    O        ",
"                 X           .  "
};
