/* XPM */
static char *player[] = {
/* columns rows colors chars-per-pixel */
"32 32 20 1 ",
"  c black",
". c #222034",
"X c #70162B",
"o c #472138",
"O c #A84111",
"+ c #EF3E6D",
"@ c #179131",
"# c #55B33B",
"$ c #64BD37",
"% c #7AB94A",
"& c #98CF3F",
"* c #A7D722",
"= c #81BB4D",
"- c #82A368",
"; c #FB9B72",
": c #8EC840",
"> c #1E1B80",
", c #3B6983",
"< c #00EDFF",
"1 c #FAFA82",
/* pixels */
"::::::::::::::::::::::::::::::::",
":::::::%<:::::$::::::::::::::#::",
":::&:::<<<&::::$::$:::::::::*:=:",
"::::::<<<<:::::::$:::::::$::#=::",
"::::$:<<<<::::::::::::::::$:::::",
":::=$::<<>:::::%::::::::::::::::",
":::=:#:>>O:::::%::::::::::::::::",
"::$:=#=OOO:#:::::::::::::::::&::",
":=:#=#*OOO$@:=:,,,,,,$@:::::::::",
"::=#=@#=OO#==:,,,,,,,,:=::::::::",
"::::::::OO:::,,,,,,,#==:::$:::::",
"::::::::OO::,....,,,,::::::$::$:",
"::::::::OO::,.;;;.,,,::::::::$::",
"::::::::OO--.;;;;;.,,-----1:::::",
"::::::::OO--X ;;  X.,----1::::::",
"::::#:::OO1-X;;;;;XX,--11.::::::",
":::=:#::OO:1XX;;XXXX,-1..,:*@=::",
"::::=#::OO,.XXXXXXXX,1.,,,,=::::",
"::::=@:;;O;,XXXXXXXX1,,,,,,:::::",
":::::::;OO;,XXXXXXXX,,,,,,,,::::",
"::::::,;;;.,,XXXXXX1,,,,,,,,::::",
"::::::,;;;.,,XXXXXX1,,,,,,,,::::",
":&::::,.;;.,,XX1XXX1,,,,,,,,:&::",
":::::::,OO.,,+-11XX1,,,,,,,,::::",
":::::::,OO,,,+-11X+1,,,,,,,,::::",
"::::::::OO:,,X-11-+1,,,,,,,:::::",
"::::::#:OO:,,X-11-X1,,.,,,,::#::",
"::::::@=OO:,,1-11-X1,,,.:::::@=:",
"::&::$:=OO:,,1-11--1,,,,::::$:=:",
":::::#=:OO::,1-11-1.,,,,::::#=::",
"::::::::OO%ooo1111.,,,,&::::::::",
"::::::::OO:::::11$::OOO::::::%::"
};
