/* XPM */
static char *player[] = {
/* columns rows colors chars-per-pixel */
"32 32 9 1 ",
"  c #8EC840",
". c #7AB94A",
"X c #64BD37",
"o c #55B33B",
"O c #98CF3F",
"+ c #A7D722",
"@ c #81BB4D",
"# c #179131",
"$ c white",
/* pixels */
"       o                        ",
"      ooo     X              o  ",
"   O oooo O    X  X         + @ ",
"     oooo        X       X  o@  ",
"    X oo#                 X     ",
"   @X ##.      .                ",
"   @ o...      .                ",
"  X @o...  o  ######         O  ",
" @ o@o+..@X# ########X#         ",
"  @o@#o..@o@####### +# @        ",
"       ..  #########o@@   X     ",
"       ..  ##OOO####       X  X ",
"       ..@@#OOOOO###@@@@@$   X  ",
"       ..@@##OO#####@@@@$       ",
"       ..$@#OOOOO###@@$$#       ",
"    o  .. $##OO#####@$###       ",
"   @ o ..###########$##### +#@  ",
"    @oOO.O#########$######o@    ",
"    @#O..O#################     ",
"     #OOO#########$########     ",
"     #OOO#########$########     ",
"     ##OO#####$###$########     ",
" O    #..###@@$$##$########  O  ",
"      #..###@@$$#@$########     ",
"       .. ###@$$@@$#######      ",
"       .. ###@$$@#$#######      ",
"      o.. ##$@$$@#$####@     o  ",
"      #.. ##$@$$@@$####      #@ ",
"  O  X ..  #$@$$@$#####     X @ ",
"     o@.. ###$$$$#####      o@  ",
"       .. .   $$  X... O        ",
"                 X           .  "
};
