/* XPM */
static char *dimensional_portal[] = {
/* columns rows colors chars-per-pixel */
"32 32 14 1 ",
"  c #8EC840",
". c #7AB94A",
"X c #3CA370",
"o c #55B33B",
"O c #98CF3F",
"+ c #8FDE5D",
"@ c #3D6E70",
"# c #A7D722",
"$ c #81BB4D",
"% c #64BD37",
"& c #385660",
"* c #CFFF70",
"= c #323E4F",
"- c #179131",
/* pixels */
"                                ",
"       .      XXXX           o  ",
"   O   .  O  +X@@XX         # $ ",
"             X@@@@X      %  o$  ",
"    %       +@@&&@@X      %     ",
"   $%  +*   X@&==&@X            ",
"   $ o **  +X@&==&@XX           ",
"  % $o$ o  +X@====+++        O  ",
" $ o$o#$o$%XX&==+++++%-         ",
"  $o$-o$o+oX@&=+++***- $        ",
"          XX&=++******$   %     ",
"          X@&=+*******     %  % ",
"          X@&+**+++***       %  ",
"          X@&+*++++++*          ",
"          X@&+*+===++*          ",
"    o     X@&++====&+*          ",
"   $ o    +X&++=XX=&++ %   #-$  ",
"    $o    +X&++=+XX&++  o o$    ",
"    $-    ++X=+++XX&+*  o$      ",
"          ++XXX==XX&+*          ",
"          X+++XXX+X&++          ",
"          +XX+++XX=@++   ..     ",
" O       % X@XXXX=&+++       O  ",
"          %X@&====&+++          ",
"           X@@====@+*           ",
"           +X@&==&@+*%-         ",
"      o     X@@&&@@++X $     o  ",
"      -$    +X@@@@++oX$      -$ ",
"  O  % $     X@@@@+         % $ ",
"     o$      +X@@++         o$  ",
"          .   ++++%    O        ",
"                 %           .  "
};
