/* XPM */
static char *wall[] = {
/* columns rows colors chars-per-pixel */
"32 32 13 1 ",
"  c #111F12",
". c #17394A",
"X c #14605D",
"o c #A84111",
"O c #179131",
"+ c #55B33B",
"@ c #64BD37",
"# c #5C855B",
"$ c #7AB94A",
"% c #98CF3F",
"& c #A7D722",
"* c #81BB4D",
"= c #8EC840",
/* pixels */
"================================",
"=======$======@==============+==",
"===%===$==%====@==@=========&=*=",
"=================@=======@==+*==",
"====@===========#=========@=====",
"===*@==@=======##===============",
"===*=+=@======X##X==============",
"==@=*+*=+==+XX###X===========%==",
"=*=+*+&*+*@O=X###XX==@O=========",
"==*+*O+*+*+*X#####X=&O=*========",
"===========X##X###XXX**===@=====",
"============#X##X##X=======@==@=",
"===========#X###XX##X========@==",
"===========XXXX#XXXXX===========",
"========XXXX##X##X#XXX==========",
"====+====XX###XXXX###XX=========",
"===*=+====##XXX##XX##X=@===&O*==",
"====*+===XXXXXX###XXXXX=+=+*====",
"====*OXXXXXXX#XX##XXXXXXX*======",
"=======XXXXX##XXXXXXXXXX========",
"========XXXX#XXXXXXXXXX=========",
"=======..XXXXXXXXXXXXXXXX$$=====",
"=%====..XXXXXXXXXXXXXXXXXX===%==",
"=======XXXXXXXXXXXXXXXX..=======",
"========.X.XXXXXXXXXXXXX..======",
"=======...XXX.XXXXXXXXXX========",
"======+==XX..XX.XX.XX..X=====+==",
"======O*====.X   X+=X*.======O*=",
"==%==@=*======    ==========@=*=",
"=====+*=======oooo==========+*==",
"==========$====oo=@====%========",
"=================@===========$=="
};
