/* XPM */
static char *wall[] = {
/* columns rows colors chars-per-pixel */
"32 32 9 1 ",
"  c #8EC840",
". c #7AB94A",
"X c #64BD37",
"o c #55B33B",
"O c #98CF3F",
"+ c #A7D722",
"@ c #81BB4D",
"# c #179131",
"$ c white",
/* pixels */
"                                ",
"       .      X              o  ",
"   O   .  O    X  X         + @ ",
"                 X       X  o@  ",
"    X           o         X     ",
"   @X  X       oo               ",
"   @ o X      #oo#              ",
"  X @o@ o  o##ooo#           O  ",
" @ o@o+@o@X# #ooo##  X#         ",
"  @o@#o@o@o@#ooooo# +# @        ",
"           #oo#ooo###@@   X     ",
"            o#oo#oo#       X  X ",
"           o#ooo##oo#        X  ",
"           ####o#####           ",
"        ####oo#oo#o###          ",
"    o    ##ooo####ooo##         ",
"   @ o    oo###oo##oo# X   +#@  ",
"    @o   ######ooo##### o o@    ",
"    @########o##oo#######@      ",
"       #####oo##########        ",
"        ####o##########         ",
"       ##################..     ",
" O    ####################   O  ",
"       ##################       ",
"        ##################      ",
"       #################        ",
"      o  ###############     o  ",
"      #@    ######o #@#      #@ ",
"  O  X @      ####          X @ ",
"     o@       ....          o@  ",
"          .    .. X    O        ",
"                 X           .  "
};
